<?xml version="1.0" encoding="UTF-8" standalone="no"?><!DOCTYPE svg PUBLIC "-//W3C//DTD SVG 1.1//EN" "http://www.w3.org/Graphics/SVG/1.1/DTD/svg11.dtd"><svg width="100%" height="100%" viewBox="0 0 877 537" version="1.1" xmlns="http://www.w3.org/2000/svg" xmlns:xlink="http://www.w3.org/1999/xlink" xml:space="preserve" xmlns:serif="http://www.serif.com/" style="fill-rule:evenodd;clip-rule:evenodd;stroke-linejoin:round;stroke-miterlimit:2;"><g id="logo"><path d="M72.283,204.367l-2.418,-6.03c-1.499,-2.757 -3.977,-8.269 -7.434,-16.537c-5.878,-13.668 -10.169,-23.177 -12.872,-28.524c-2.702,-5.348 -5.376,-9.403 -8.021,-12.163c-1.611,-1.265 -3.508,-2.53 -5.694,-3.795c-2.875,-1.84 -4.312,-3.163 -4.312,-3.968c-0,-0.805 0.516,-1.61 1.55,-2.415c2.068,-2.07 7.584,-4.169 16.548,-6.297c8.963,-2.128 17.064,-3.192 24.303,-3.192c9.767,0 18.126,2.447 25.079,7.34c6.953,4.894 14.106,13.385 21.46,25.473c10.848,17.816 21.063,40.403 30.643,67.761c4.925,-5.863 9.458,-11.814 13.599,-17.852c4.14,-6.038 8.625,-13.025 13.456,-20.961c6.095,-9.546 9.862,-15.383 11.3,-17.51c1.437,-2.128 3.277,-4.601 5.52,-7.419c2.243,-2.817 4.917,-5.951 8.022,-9.402c4.831,-4.37 10.955,-8.05 18.373,-11.041c7.418,-2.99 14.003,-4.485 19.753,-4.485c5.406,-0 8.108,2.357 8.108,7.07c0,3.106 -2.387,8.683 -7.162,16.732c-4.774,8.049 -12.224,18.886 -22.349,32.512c-10.124,13.626 -23.527,31.018 -40.209,52.177c-0.23,0.345 -1.007,1.377 -2.329,3.096c-1.323,1.718 -2.79,3.581 -4.401,5.586c-1.611,2.006 -2.991,3.696 -4.141,5.07c5.874,13.372 11.404,23.747 16.588,31.123c3.68,5.521 7.476,10.61 11.386,15.268c3.91,4.658 8.166,9.115 12.766,13.37c5.291,5.405 11.271,10.121 17.942,14.146c2.53,1.84 3.795,3.278 3.795,4.313c0,1.495 -0.919,2.99 -2.757,4.486c-3.679,3.565 -8.334,6.929 -13.965,10.092c-5.631,3.162 -11.118,5.578 -16.461,7.245c-5.344,1.668 -10.372,2.502 -15.083,2.502c-14.711,-0 -28.157,-5.642 -40.339,-16.926c-4.367,-4.489 -7.815,-8.604 -10.343,-12.347c-2.529,-3.742 -5.862,-9.777 -10.001,-18.104l-10.777,11.666c-19.666,21.047 -38.471,38.902 -56.412,53.566c-17.942,14.664 -29.845,21.996 -35.711,21.996c-3.22,-0 -5.923,-1.668 -8.108,-5.003c-2.185,-3.335 -3.278,-7.533 -3.278,-12.594c-0,-6.555 1.208,-13.168 3.623,-19.839c2.415,-6.671 5.348,-11.73 8.798,-15.179c2.07,-2.07 7.821,-6.44 17.252,-13.111c17.483,-11.156 32.435,-22.427 44.856,-33.813c5.663,-4.979 13.231,-12.681 22.705,-23.104l-27.487,-58.919l-5.361,-12.06Z" style="fill:#484848;fill-rule:nonzero;"/><path d="M329.785,160.75l-3.03,-7.557c-1.878,-3.454 -4.984,-10.362 -9.317,-20.724c-7.366,-17.129 -12.743,-29.044 -16.13,-35.746c-3.387,-6.702 -6.738,-11.783 -10.053,-15.242c-2.018,-1.585 -4.396,-3.171 -7.134,-4.756c-3.604,-2.306 -5.405,-3.964 -5.405,-4.973c-0,-1.009 0.647,-2.017 1.942,-3.026c2.592,-2.595 9.505,-5.225 20.738,-7.891c11.233,-2.667 21.385,-4 30.456,-4c12.24,-0 22.716,3.066 31.429,9.198c8.714,6.133 17.678,16.773 26.893,31.923c13.595,22.326 26.396,50.632 38.401,84.917c6.173,-7.349 11.854,-14.806 17.043,-22.373c5.188,-7.567 10.809,-16.323 16.863,-26.268c7.639,-11.962 12.359,-19.277 14.16,-21.943c1.802,-2.667 4.108,-5.765 6.919,-9.297c2.81,-3.531 6.161,-7.458 10.053,-11.782c6.053,-5.477 13.728,-10.089 23.024,-13.837c9.297,-3.747 17.548,-5.621 24.754,-5.621c6.775,0 10.162,2.954 10.162,8.861c-0,3.891 -2.992,10.881 -8.976,20.967c-5.983,10.087 -15.319,23.669 -28.007,40.744c-12.688,17.076 -29.485,38.872 -50.39,65.387c-0.288,0.433 -1.261,1.726 -2.919,3.88c-1.657,2.154 -3.495,4.488 -5.514,7.001c-2.019,2.513 -3.749,4.631 -5.191,6.354c7.362,16.757 14.292,29.758 20.789,39.003c4.612,6.918 9.368,13.296 14.268,19.133c4.901,5.837 10.234,11.422 15.999,16.755c6.63,6.774 14.124,12.683 22.484,17.728c3.171,2.306 4.756,4.108 4.756,5.405c0,1.873 -1.152,3.747 -3.456,5.621c-4.609,4.468 -10.443,8.683 -17.499,12.647c-7.057,3.964 -13.934,6.99 -20.63,9.08c-6.696,2.09 -12.997,3.135 -18.902,3.135c-18.435,0 -35.286,-7.07 -50.552,-21.211c-5.472,-5.625 -9.793,-10.783 -12.962,-15.473c-3.168,-4.69 -7.346,-12.252 -12.532,-22.688l-13.505,14.62c-24.646,26.376 -48.212,48.752 -70.696,67.128c-22.484,18.377 -37.401,27.565 -44.752,27.565c-4.036,-0 -7.423,-2.09 -10.161,-6.27c-2.738,-4.18 -4.108,-9.44 -4.108,-15.782c0,-8.215 1.514,-16.503 4.54,-24.862c3.027,-8.36 6.702,-14.7 11.026,-19.022c2.595,-2.594 9.801,-8.071 21.62,-16.431c21.91,-13.98 40.647,-28.105 56.213,-42.374c7.097,-6.24 16.581,-15.891 28.454,-28.953l-34.446,-73.837l-6.719,-15.113Z" style="fill:#e97920;fill-rule:nonzero;"/><path d="M641.033,67.741l4.035,-10.089c-6.341,-0 -11.722,0.528 -16.142,1.585c-4.42,1.057 -9.609,2.739 -15.566,5.045c-7.303,2.69 -12.299,4.035 -14.989,4.035c-3.267,0 -5.958,-1.249 -8.072,-3.747c-2.114,-2.498 -3.171,-5.573 -3.171,-9.224c0,-7.495 3.027,-15.23 9.081,-23.205c6.053,-7.975 13.5,-13.596 22.34,-16.863c11.53,-4.612 26.375,-8.312 44.536,-11.098c18.16,-2.787 36.176,-4.18 54.048,-4.18c20.178,0 38.29,1.441 54.337,4.324c16.046,2.882 30.315,7.495 42.806,13.836c12.491,6.342 23.445,14.221 32.862,23.637c9.416,9.417 16.671,20.371 21.763,32.862c5.093,12.491 7.639,25.751 7.639,39.78c0,12.683 -2.546,26.904 -7.639,42.662c-5.092,15.758 -12.155,31.132 -21.187,46.121c-9.032,14.99 -18.929,27.673 -29.69,38.05c-12.492,12.107 -28.298,22.34 -47.419,30.7c-19.121,8.359 -36.561,12.539 -52.319,12.539c-6.726,0 -12.635,-1.201 -17.728,-3.603c-5.092,-2.402 -7.639,-5.333 -7.639,-8.792c0,-5.381 2.018,-10.425 6.054,-15.134c4.035,-4.708 11.434,-10.521 22.196,-17.439c9.224,-5.378 17.872,-11.814 25.943,-19.309c9.609,-10.569 16.671,-21.812 21.187,-33.726c4.516,-11.915 6.774,-26.136 6.774,-42.662c0,-15.756 -2.689,-29.11 -8.067,-40.064c-5.378,-10.954 -14.115,-20.755 -26.213,-29.402l-39.483,127.987l-7.206,22.484c-3.075,8.84 -7.207,24.021 -12.395,45.545c-9.414,37.089 -18.254,62.838 -26.52,77.248c-3.651,6.342 -8.361,12.588 -14.129,18.737c-9.227,8.071 -20.906,15.133 -35.035,21.185c-14.129,6.052 -26.288,9.078 -36.476,9.078c-6.726,-0 -12.059,-1.97 -16,-5.91c-3.941,-3.939 -5.912,-9.464 -5.912,-16.574c0,-7.879 1.97,-19.41 5.909,-34.591c3.94,-15.182 12.059,-42.374 24.358,-81.578l5.189,-16.142l5.477,-17.584l52.463,-156.524Z" style="fill:#e97920;fill-rule:nonzero;"/><text x="-3.711px" y="515.736px" style="font-family:'ArialNarrow', 'Arial', sans-serif;font-stretch:condensed;font-size:100px;fill:#484848;">Share your experience</text></g></svg>